<?xml version="1.0" encoding="iso-8859-1"?>
<!-- Uploaded to: SVG Repo, www.svgrepo.com, Generator: SVG Repo Mixer Tools -->
<svg height="800px" width="800px" version="1.1" id="Capa_1" xmlns="http://www.w3.org/2000/svg" xmlns:xlink="http://www.w3.org/1999/xlink" 
	 viewBox="0 0 293.815 293.815" xml:space="preserve">
<g>
	<g>
		<path style="fill:#010002;" d="M37.422,176.387c1.561,1.615,3.965,2.11,6.021,1.229l89.989-38.003l-67.939,42.332
			c-1.594,0.995-2.562,2.736-2.562,4.618v38.378c0,7.593,1.071,14.082,3.1,18.759c3.486,8.044,8.926,9.241,11.857,9.241
			c3.546,0,7.049-1.653,10.405-4.917l12.929-12.575l18.993,13.146c4.743,3.285,10.459,5.015,16.529,5.015
			c12.532,0,25.498-7.321,33.853-19.102L287.254,69.896c8.039-11.346,7.239-18.531,5.156-22.556
			c-1.376-2.665-5.064-7.136-14.267-7.136c-3.057,0-6.521,0.495-10.312,1.463L21.463,104.624
			c-10.992,2.807-18.335,8.931-20.69,17.236c-2.35,8.311,0.696,17.372,8.583,25.52L37.422,176.387z M11.243,124.825
			c1.251-4.422,5.836-7.854,12.912-9.66l246.373-62.963c6.625-1.686,11.656-0.979,12.227,0.136c0.528,1.017,0.294,4.683-4.373,11.27
			L161.731,228.221c-6.347,8.953-15.92,14.511-24.982,14.511c-3.905,0-7.381-1.033-10.334-3.079l-22.675-15.697
			c-0.941-0.647-2.018-0.968-3.095-0.968c-1.376,0-2.747,0.522-3.791,1.539l-16.138,15.697c-1.871,1.817-2.817,1.838-2.823,1.844
			c-1.044-0.326-4.079-5.167-4.079-17.128v-35.359l123.837-77.164c2.404-1.496,3.258-4.601,1.947-7.12
			c-1.305-2.535-4.362-3.606-6.94-2.507L42.649,166.145l-25.477-26.331C12.097,134.572,9.987,129.247,11.243,124.825z"/>
	</g>
</g>
</svg>