<!DOCTYPE svg PUBLIC "-//W3C//DTD SVG 1.1//EN" "http://www.w3.org/Graphics/SVG/1.1/DTD/svg11.dtd">
<!-- Uploaded to: SVG Repo, www.svgrepo.com, Transformed by: SVG Repo Mixer Tools -->
<svg fill="#ffffff" version="1.1" id="Capa_1" xmlns="http://www.w3.org/2000/svg" xmlns:xlink="http://www.w3.org/1999/xlink" width="256px" height="256px" viewBox="0 0 331.008 331.008" xml:space="preserve">
<g id="SVGRepo_bgCarrier" stroke-width="0"/>
<g id="SVGRepo_tracerCarrier" stroke-linecap="round" stroke-linejoin="round"/>
<g id="SVGRepo_iconCarrier"> <g> <g> <path d="M229.33,105.498c-1.051,0-2.084,0.061-3.129,0.084c-3.23-8.583-8.377-16.711-15.42-24.103 c-21.245-22.296-57.022-35.609-95.711-35.609C51.621,45.871,0,83.575,0,129.914c0,33.248,26.121,62.773,67.041,76.404 c-5.206,21.029-9.665,28.901-11.313,30.061c-4.975,2.486-4.242,6.762-4.047,7.59c0.279,1.171,1.612,4.996,7.128,4.996 c7.638,0,53.827-9.848,67.803-35.452c3.513-0.265,6.975-0.637,10.379-1.129c14.703,23.274,45.405,38.959,81.752,41.625 c12.683,22.464,53.19,31.129,59.928,31.129c5.537,0,6.785-4.132,6.984-4.96c0.197-0.828,0.918-5.074-3.741-7.392 c-1.693-1.315-5.488-9.122-9.565-25.311c35.836-12.165,58.66-38.196,58.66-67.518C331.014,138.903,285.396,105.498,229.33,105.498 z M58.808,242.811l-0.036-6.149c0.012,0,0.024,0.006,0.036,0.006V242.811z M278.67,272.84c0.013,0,0.013,0,0.013,0l-0.013,6.148 V272.84z M122.327,201.455c-2.405,0.12-4.506,1.621-5.404,3.843c-6.014,14.964-30.351,24.812-45.892,29.027 c2.786-6.401,5.954-16.062,9.322-30.805c0.727-3.177-1.156-6.365-4.284-7.278c-38.74-11.168-63.765-37.205-63.765-66.328 c0-39.562,46.104-71.746,102.772-71.746c35.389,0,67.842,11.886,86.811,31.795c11.139,11.686,16.651,25.395,15.967,39.656 C215.999,167.981,174.932,198.867,122.327,201.455z M263.334,237.412c-3.135,0.906-5.008,4.095-4.287,7.283 c2.714,11.896,5.302,20.074,7.632,25.742c-13.457-3.843-33.267-12.184-38.269-24.631c-0.9-2.229-3.003-3.729-5.404-3.855 c-31.285-1.525-58.037-13.307-72.265-31.32c47.272-10.857,80.671-44.007,80.671-81.387c0-3.813-0.36-7.638-1.068-11.436 c48.818,0.381,88.366,28.112,88.366,62.15C318.716,205.16,296.979,227.72,263.334,237.412z"/> <path d="M186.01,111.647H41.511c-3.401,0-6.149,2.747-6.149,6.148c0,3.399,2.748,6.149,6.149,6.149H186.01 c3.405,0,6.149-2.75,6.149-6.149C192.16,114.395,189.416,111.647,186.01,111.647z"/> <path d="M180.882,140.915H49.708c-3.402,0-6.149,2.75-6.149,6.149c0,3.402,2.747,6.149,6.149,6.149h131.174 c3.405,0,6.149-2.747,6.149-6.149C187.032,143.665,184.288,140.915,180.882,140.915z"/> </g> </g> </g>
</svg>